#!OML:ASF F:\VICON\USERDATA\INSTALL\rory3\rory3.ASF
:FULLY-SPECIFIED
:DEGREES
400
root -1.22021 16.1979 16.1721 1.11615 5.37526 -0.0937917
lowerback 13.3511 0.97601 -4.1703
upperback -5.33002 0.718034 1.50721
thorax -13.5494 0.789569 3.86179
lowerneck -11.4885 -6.39867 -3.92778
upperneck 20.953 -8.77669 2.9724
head 8.7401 -4.14628 0.678918
rclavicle -1.86361e-014 -1.03368e-014
rhumerus -32.0073 -0.614977 -82.1417
rradius 30.26
rwrist 4.64557
rhand -11.8797 20.1124
rfingers 7.12502
rthumb 14.1729 -9.38418
lclavicle -1.86361e-014 -1.03368e-014
lhumerus -42.7958 0.125241 89.9506
lradius 22.2952
lwrist 0.783102
lhand -3.85276 20.5401
lfingers 7.12502
lthumb 21.8953 49.3212
rfemur -0.921163 16.6983 28.683
rtibia 22.6958
rfoot -20.7626 -13.0293
rtoes 31.4485
lfemur -33.9573 -8.27299 -18.9794
ltibia 44.3308
lfoot -7.7306 5.09175
ltoes 8.37951
401
root -1.20322 16.216 16.3105 1.2018 5.35684 -0.0100481
lowerback 13.1281 0.935127 -4.20595
upperback -5.30597 0.660811 1.47041
thorax -13.3781 0.75885 3.85394
lowerneck -11.584 -6.36211 -3.99297
upperneck 20.942 -8.73235 3.07668
head 8.76039 -4.11843 0.726123
rclavicle 6.5102e-015 8.15017e-015
rhumerus -31.8065 -0.0453386 -82.3907
rradius 30.6109
rwrist 4.33806
rhand -11.724 20.1057
rfingers 7.12502
rthumb 14.323 -9.38029
lclavicle 6.5102e-015 8.15017e-015
lhumerus -42.7774 0.236255 89.9979
lradius 22.2976
lwrist 0.967623
lhand -3.92284 20.1726
lfingers 7.12502
lthumb 21.828 48.9616
rfemur 0.494683 16.5177 28.7024
rtibia 21.1101
rfoot -20.3731 -13.2881
rtoes 30.1155
lfemur -33.7857 -9.64135 -18.5199
ltibia 41.7713
lfoot -8.16607 5.73338
ltoes 8.36981
402
root -1.18593 16.232 16.4503 1.28405 5.22676 -0.0248028
lowerback 13.0112 0.973516 -4.0699
upperback -5.39403 0.734593 1.40934
thorax -13.412 0.78053 3.69035
lowerneck -11.47 -6.35103 -3.98849
upperneck 20.9452 -8.72423 3.08618
head 8.74045 -4.11526 0.733359
rclavicle 1.11444e-014 9.93923e-016
rhumerus -31.8492 0.344832 -82.576
rradius 30.989
rwrist 4.25368
rhand -11.764 20.2583
rfingers 7.12502
rthumb 14.2844 -9.23034
lclavicle 1.11444e-014 9.93923e-016
lhumerus -42.9517 0.160126 90.0428
lradius 22.4351
lwrist 1.10517
lhand -3.87728 20.2139
lfingers 7.12502
lthumb 21.8718 48.9978
rfemur 1.92226 16.4706 28.8183
rtibia 19.4478
rfoot -19.9901 -13.3698
rtoes 29.8187
lfemur -33.5753 -11.0418 -17.901
ltibia 39.3191
lfoot -8.69685 6.67369
ltoes 6.53987
403
root -1.17299 16.24 16.5871 1.32507 5.09763 -0.096131
lowerback 12.9648 1.04316 -3.95789
upperback -5.49682 0.846579 1.37591
thorax -13.5112 0.825485 3.56232
lowerneck -11.3278 -6.40039 -4.02737
upperneck 21.0132 -8.79497 3.09166
head 8.74256 -4.1526 0.737039
rclavicle -1.47846e-014 -2.26615e-014
rhumerus -31.9923 0.42558 -82.6505
rradius 31.3327
rwrist 4.23418
rhand -11.8707 20.4139
rfingers 7.12502
rthumb 14.1816 -9.08206
lclavicle -1.47846e-014 -2.26615e-014
lhumerus -43.1337 0.272799 89.9742
lradius 22.4479
lwrist 0.913601
lhand -3.85567 20.3901
lfingers 7.12502
lthumb 21.8925 49.1715
rfemur 3.36445 16.5801 29.0365
rtibia 17.774
rfoot -19.751 -13.4439
rtoes 30.2359
lfemur -33.406 -12.4639 -17.1319
ltibia 37.0037
lfoot -9.22349 7.62261
ltoes 6.0468
404
root -1.15986 16.2462 16.7138 1.43506 4.9563 -0.104119
lowerback 12.8762 1.04256 -4.03438
upperback -5.56296 0.837307 1.39801
thorax -13.5359 0.831151 3.63315
lowerneck -11.4009 -6.38828 -4.0538
upperneck 21.2023 -8.76292 3.01919
head 8.8172 -4.14376 0.715858
rclavicle -6.24929e-015 4.77083e-015
rhumerus -31.9076 0.653911 -82.7959
rradius 31.6332
rwrist 4.00748
rhand -11.7747 20.496
rfingers 7.12502
rthumb 14.2741 -8.99346
lclavicle -6.24929e-015 4.77083e-015
lhumerus -43.2009 0.775133 89.7837
lradius 22.3802
lwrist 0.682768
lhand -3.99856 20.3536
lfingers 7.12502
lthumb 21.7553 49.151
rfemur 4.6881 16.5332 29.1213
rtibia 16.0608
rfoot -19.2615 -13.5814
rtoes 29.7159
lfemur -33.4499 -13.9027 -16.358
ltibia 34.9133
lfoot -9.53789 8.70511
ltoes 4.96672
405
root -1.14364 16.2535 16.8469 1.6236 4.80516 0.0931308
lowerback 12.647 1.08254 -4.2837
upperback -5.56422 0.847544 1.33918
thorax -13.4032 0.851297 3.70651
lowerneck -11.8087 -6.31808 -3.75064
upperneck 21.4256 -8.64507 2.67834
head 8.93324 -4.09067 0.550525
rclavicle 1.85988e-014 -1.98785e-015
rhumerus -31.7162 0.803615 -82.925
rradius 32.0259
rwrist 3.69708
rhand -11.5073 20.5086
rfingers 7.12502
rthumb 14.5317 -8.96242
lclavicle 1.85988e-014 -1.98785e-015
lhumerus -43.1164 0.892435 89.7988
lradius 22.3933
lwrist 0.842673
lhand -3.87341 20.344
lfingers 7.12502
lthumb 21.8755 49.1274
rfemur 6.0354 16.4199 28.9477
rtibia 14.2805
rfoot -18.724 -13.7038
rtoes 28.5688
lfemur -33.5403 -15.2503 -15.8695
ltibia 33.0506
lfoot -9.75977 10.0564
ltoes 1.88176
406
root -1.12666 16.2586 16.9842 1.73992 4.64207 -0.0221891
lowerback 12.4512 1.12649 -4.17623
upperback -5.57572 0.9354 1.34392
thorax -13.302 0.881151 3.62962
lowerneck -11.9851 -6.24937 -3.544
upperneck 21.4051 -8.54454 2.50092
head 8.9367 -4.04323 0.464427
rclavicle -1.47846e-015 -6.55989e-015
rhumerus -31.6845 0.988207 -83.0271
rradius 32.3642
rwrist 3.69247
rhand -11.4653 20.4967
rfingers 7.12502
rthumb 14.5722 -8.97143
lclavicle -1.47846e-015 -6.55989e-015
lhumerus -43.0819 0.936335 89.8339
lradius 22.4424
lwrist 0.933737
lhand -3.77287 20.284
lfingers 7.12502
lthumb 21.9721 49.0562
rfemur 7.47007 16.2798 29.121
rtibia 12.4371
rfoot -18.0802 -13.8203
rtoes 27.252
lfemur -33.6753 -16.574 -15.0247
ltibia 31.4327
lfoot -10.0467 11.3025
ltoes 1.0645
407
root -1.11153 16.2563 17.1162 1.79982 4.47131 -0.3304
lowerback 12.3024 1.13703 -3.9392
upperback -5.59198 1.00743 1.41899
thorax -13.2312 0.897387 3.56165
lowerneck -11.7885 -6.16477 -3.56873
upperneck 21.1982 -8.4568 2.66903
head 8.83559 -3.99203 0.544559
rclavicle -4.13224e-014 -1.74931e-014
rhumerus -31.5774 1.09428 -83.1176
rradius 32.473
rwrist 4.22453
rhand -11.6573 20.6883
rfingers 7.12502
rthumb 14.3872 -8.79306
lclavicle -4.13224e-014 -1.74931e-014
lhumerus -43.0878 1.12554 89.7611
lradius 22.4846
lwrist 0.827955
lhand -3.80743 20.2059
lfingers 7.12502
lthumb 21.9389 48.9819
rfemur 9.02474 16.3233 29.5493
rtibia 10.4024
rfoot -17.4243 -13.9604
rtoes 26.5737
lfemur -33.9691 -18.1208 -13.8211
ltibia 30.0728
lfoot -9.85283 12.798
ltoes -1.17317
